<?xml version="1.0"?>
<svg xmlns="http://www.w3.org/2000/svg" xmlns:xlink="http://www.w3.org/1999/xlink" xmlns:svgjs="http://svgjs.com/svgjs" version="1.1" width="512" height="512" x="0" y="0" viewBox="0 0 128 128" style="enable-background:new 0 0 512 512" xml:space="preserve" class=""><g><path xmlns="http://www.w3.org/2000/svg" d="m64 109.18a45 45 0 1 0 -26.37-8.53 44.87 44.87 0 0 0 26.37 8.53z" fill="#000000" data-original="#0f3eea" style="" class=""/><g xmlns="http://www.w3.org/2000/svg" fill="#fffde6"><path d="m64 72.18a17.28 17.28 0 0 0 17.32-17.25q0-.68-.06-1.35a17.32 17.32 0 0 0 -34.52 0q-.06.68-.06 1.35a17.28 17.28 0 0 0 17.32 17.25z" fill="#68ff31" data-original="#fffde6" style="" class=""/><path d="m90.37 96.71a24.52 24.52 0 0 0 -24.52-24.53h-3.7a24.52 24.52 0 0 0 -24.52 24.53v3.94a45 45 0 0 0 52.74 0z" fill="#68ff31" data-original="#fffde6" style="" class=""/></g></g></svg>
